<svg width="24" height="24" viewBox="0 0 24 24" fill="#E1306C" xmlns="http://www.w3.org/2000/svg">
<path d="M12.0325 15.7422C14.0991 15.7422 15.7744 14.0668 15.7744 12.0002C15.7744 9.93362 14.0991 8.2583 12.0325 8.2583C9.96585 8.2583 8.29053 9.93362 8.29053 12.0002C8.29053 14.0668 9.96585 15.7422 12.0325 15.7422Z" fill="#E1306C"/>
<path d="M16.0968 2H7.90323C4.64516 2 2 4.64516 2 7.90323V16.0323C2 19.3548 4.64516 22 7.90323 22H16.0323C19.3548 22 22 19.3548 22 16.0968V7.90323C22 4.64516 19.3548 2 16.0968 2ZM12.0323 16.9032C9.29032 16.9032 7.12903 14.6774 7.12903 12C7.12903 9.32258 9.32258 7.09677 12.0323 7.09677C14.7097 7.09677 16.9032 9.32258 16.9032 12C16.9032 14.6774 14.7419 16.9032 12.0323 16.9032ZM18.8064 7.54839C18.4839 7.90323 18 8.09677 17.4516 8.09677C16.9677 8.09677 16.4839 7.90323 16.0968 7.54839C15.7419 7.19355 15.5484 6.74194 15.5484 6.19355C15.5484 5.64516 15.7419 5.22581 16.0968 4.83871C16.4516 4.45161 16.9032 4.25806 17.4516 4.25806C17.9355 4.25806 18.4516 4.45161 18.8064 4.80645C19.129 5.22581 19.3548 5.70968 19.3548 6.22581C19.3226 6.74194 19.129 7.19355 18.8064 7.54839Z" fill="#E1306C"/>
<path d="M17.4846 5.41919C17.0653 5.41919 16.7104 5.77403 16.7104 6.19338C16.7104 6.61274 17.0653 6.96758 17.4846 6.96758C17.904 6.96758 18.2588 6.61274 18.2588 6.19338C18.2588 5.77403 17.9363 5.41919 17.4846 5.41919Z" fill="#E1306C"/>
</svg>
