<svg width="60" height="60" viewBox="0 0 60 60" fill="none" xmlns="http://www.w3.org/2000/svg">
<path d="M27.2727 32.5L13.6364 28.75L16.3636 37.5L21.2727 39.375V52.875C21.2727 52.875 16.8123 49.0185 14.3182 46.25C12.4259 44.1496 9.81818 40.625 9.81818 40.625C9.81818 40.625 5.39956 26.8935 9.81818 19.875C14.3349 12.7007 20.9637 9.5 30 9.5C39.0363 9.5 45.6651 12.7007 50.1818 19.875C54.6004 26.8935 50.1818 40.625 50.1818 40.625C50.1818 40.625 47.5741 44.1496 45.6818 46.25C43.1877 49.0185 38.7273 52.875 38.7273 52.875L38.8636 39.375L43.6364 37.5L46.3636 28.75L32.7273 32.5V60L60 46.25V15L30 0L0 15V46.25L27.2727 60V32.5Z" fill="white"/>
</svg>
